<!-- icon666.com - MILLIONS vector ICONS FREE --><svg version="1.1" id="Capa_1" xmlns="http://www.w3.org/2000/svg" xmlns:xlink="http://www.w3.org/1999/xlink" x="0px" y="0px" viewBox="0 0 512 512" style="enable-background:new 0 0 512 512;" xml:space="preserve"><g><g><path d="M427.582,468.607c-4.19,0-7.586,3.397-7.586,7.586v20.634H41.611V85.429c0-4.19-3.397-7.586-7.586-7.586 c-4.19,0-7.586,3.397-7.586,7.586v418.984c0,4.19,3.397,7.586,7.586,7.586h393.558c4.19,0,7.586-3.397,7.586-7.586v-28.22 C435.169,472.003,431.772,468.607,427.582,468.607z"></path></g></g><g><g><path d="M432.947,82.471l-80.25-80.249C351.274,0.799,349.344,0,347.332,0H34.025c-4.19,0-7.586,3.397-7.586,7.586v49.808 c0,4.19,3.397,7.586,7.586,7.586c4.19,0,7.586-3.397,7.586-7.586V15.173h302.58l75.805,75.805v165.716 c0,4.19,3.397,7.586,7.586,7.586c4.19,0,7.586-3.397,7.586-7.586V87.836C435.169,85.824,434.37,83.894,432.947,82.471z"></path></g></g><g><g><path d="M427.582,80.249h-72.664V7.586c0-4.19-3.397-7.586-7.586-7.586s-7.586,3.397-7.586,7.586v80.249 c0,4.19,3.397,7.586,7.586,7.586h80.25c4.19,0,7.586-3.397,7.586-7.586S431.772,80.249,427.582,80.249z"></path></g></g><g><g><path d="M380.487,142.956H316.02c-4.19,0-7.586,3.397-7.586,7.586s3.397,7.586,7.586,7.586h64.467c4.19,0,7.586-3.397,7.586-7.586 S384.677,142.956,380.487,142.956z"></path></g></g><g><g><path d="M287.986,142.956H81.121c-4.19,0-7.586,3.397-7.586,7.586s3.397,7.586,7.586,7.586h206.865 c4.19,0,7.586-3.397,7.586-7.586S292.176,142.956,287.986,142.956z"></path></g></g><g><g><path d="M380.488,187.402H81.121c-4.19,0-7.586,3.397-7.586,7.586s3.397,7.586,7.586,7.586h299.366 c4.19,0,7.587-3.397,7.587-7.586S384.678,187.402,380.488,187.402z"></path></g></g><g><g><path d="M380.488,231.847H81.121c-4.19,0-7.586,3.397-7.586,7.586s3.397,7.586,7.586,7.586h299.366 c4.19,0,7.587-3.397,7.587-7.586S384.678,231.847,380.488,231.847z"></path></g></g><g><g><path d="M292.866,276.292H188.201c-4.19,0-7.586,3.397-7.586,7.586s3.397,7.586,7.586,7.586h104.665 c4.19,0,7.586-3.397,7.586-7.586S297.056,276.292,292.866,276.292z"></path></g></g><g><g><path d="M160.167,276.292H81.121c-4.19,0-7.586,3.397-7.586,7.586s3.397,7.586,7.586,7.586h79.045c4.19,0,7.587-3.397,7.587-7.586 S164.357,276.292,160.167,276.292z"></path></g></g><g><g><path d="M258.474,320.737H81.121c-4.19,0-7.586,3.397-7.586,7.586c0,4.19,3.397,7.586,7.586,7.586h177.353 c4.19,0,7.586-3.397,7.586-7.586C266.061,324.134,262.664,320.737,258.474,320.737z"></path></g></g><g><g><path d="M380.869,260.233c-57.728,0-104.693,46.965-104.693,104.693c0,57.728,46.965,104.693,104.693,104.693 c21.756,0,42.618-6.612,60.333-19.122c3.422-2.418,4.237-7.151,1.821-10.573c-2.418-3.422-7.15-4.236-10.573-1.821 c-15.139,10.692-32.975,16.343-51.58,16.343c-49.361,0-89.52-40.158-89.52-89.52s40.158-89.52,89.52-89.52 s89.52,40.158,89.52,89.52c0,19.698-6.273,38.382-18.141,54.034c-2.532,3.339-1.877,8.098,1.461,10.629 c3.341,2.534,8.099,1.877,10.629-1.461c13.884-18.311,21.223-40.166,21.223-63.202 C485.562,307.198,438.597,260.233,380.869,260.233z"></path></g></g><g><g><path d="M430.583,309.405c-3.848-1.657-8.312,0.121-9.968,3.97l-40.644,94.451l-35.611-45.549 c-2.581-3.302-7.349-3.884-10.649-1.305c-3.302,2.58-3.885,7.349-1.305,10.649l43.495,55.635c1.448,1.852,3.66,2.913,5.976,2.913 c0.323,0,0.648-0.021,0.976-0.062c2.657-0.344,4.936-2.063,5.995-4.526l45.704-106.21 C436.209,315.524,434.432,311.061,430.583,309.405z"></path></g></g></svg>