<!-- icon666.com - MILLIONS vector ICONS FREE --><svg id="Layer_1" enable-background="new 0 0 64 64" viewBox="0 0 64 64" xmlns="http://www.w3.org/2000/svg"><path d="m47.5 51.2c-1 .4-2 .7-3 1-1.1.3-.7 1.4-.7 1.4 0 2-.7 3.9-2 5.4h-3.3c-1.2-1.3-2-3.1-2.1-5.1 0-.5-.5-.9-1-.9h-10.7c-.5 0-1 .4-1 1-.1 1.9-.9 3.7-2.1 5h-3.1c-1.3-1.5-2.1-3.5-2.1-5.5 0-.4 0-.9.1-1.2.1-.4-.1-.9-.5-1.1-5.6-2.8-9-8.4-9-14.6 0-2.8.6-5.6 1.8-8.2.2-.5 0-1.1-.5-1.3s-1.1 0-1.3.5c-1.1 2.3-1.7 4.7-1.9 7.3-1.2-.5-2.1-1.6-2.1-2.9 0-.6-.4-1-1-1s-1 .4-1 1c0 2.4 1.7 4.4 4 4.9.1 6.6 3.6 12.5 9.3 15.7v.9c0 1.9.6 3.9 1.6 5.5h-13.9c-.6 0-1 .4-1 1s.4 1 1 1h24c.6 0 1-.4 1-1s-.4-1-1-1h-1.9c.8-1.2 1.3-2.6 1.5-4h8.8c.2 1.5.8 2.8 1.5 4h-5.9c-.6 0-1 .4-1 1s.4 1 1 1h16c.6 0 1-.4 1-1s-.4-1-1-1h-1.8c1-1.5 1.5-3.2 1.6-5 .9-.3 1.7-.6 2.5-.9.5-.2.8-.8.6-1.3-.3-.5-.8-.8-1.4-.6z"></path><path d="m59.8 29h-4.9c0-.1.2-5.4-5.1-9.8-.1-.3-.1-.9-.1-1.7 0-1.7 1.3-5 3.1-6.8.3-.3.4-.7.2-1.1s-.6-.6-1-.6c-.2 0-5.9.1-9.8 5.8-.3.5-.2 1.1.3 1.4s1.1.2 1.4-.3c1.9-2.7 4.1-3.9 5.8-4.5-1.3 2.1-2 4.5-2 6 0 1.4.2 2.4.2 2.4 0 .2.2.4.3.6 4.1 3.4 4.4 6.4 4.7 8.6 0 .4.1.8.2 1.2.1.5.5.8 1 .8h5.8c.6 0 1.3.5 1.3 1.3v3.9c0 1-.3 2.2-.7 3.2-2.1 4.2-5.3 7.7-9.1 10-.5.3-.7.9-.3 1.4.5.7 1.2.4 1.4.3 4.2-2.5 7.6-6.2 9.9-10.8.6-1.3.9-2.7.9-4v-3.9c-.2-1.9-1.7-3.4-3.5-3.4z"></path><path d="m50.6 47.4c2.5-2 4.7-4.3 6.2-6.7.3-.5.2-1.1-.3-1.4s-1.1-.2-1.4.3c-1.5 2.3-3.4 4.4-5.8 6.3-.4.3-.5.9-.2 1.4.5.5 1.3.2 1.5.1z"></path><path d="m10.8 25c1.8-2.5 4.2-4.5 6.9-5.9.5-.3.7-.9.4-1.3-.3-.5-.9-.7-1.3-.4-3 1.5-5.6 3.8-7.6 6.5-.3.4-.2 1.1.2 1.4.7.4 1.2 0 1.4-.3z"></path><path d="m12.6 44.9c.5-.2.7-.9.4-1.3-1.3-2.5-2-5.2-2-7.8 0-.6 0-1 .1-1.5s-.3-1.1-.8-1.2-1.1.3-1.2.8c-.1.6-.1 1.2-.1 1.8 0 3 .7 5.9 2.2 8.8.2.3.7.7 1.4.4z"></path><path d="m33.5 5.7c3.3 1.4 5.5 4.7 5.5 8.3 0 1.7-.5 3.4-1.4 4.8-.3.5-.2 1.1.3 1.4.7.3 1.2 0 1.4-.3 1.1-1.8 1.7-3.8 1.7-5.9 0-4.4-2.6-8.4-6.7-10.1-.5-.2-1.1 0-1.3.5-.3.5 0 1.1.5 1.3z"></path><path d="m22.1 20.2c.5-.3.6-.9.3-1.4-.9-1.4-1.4-3.1-1.4-4.8 0-5 4-9 9-9 .6 0 1-.4 1-1s-.4-1-1-1c-6.1 0-11 4.9-11 11 0 2.1.6 4.1 1.7 5.9.2.3.8.6 1.4.3z"></path><path d="m20 23h20c.6 0 1-.4 1-1s-.4-1-1-1h-20c-.6 0-1 .4-1 1s.4 1 1 1z"></path><path d="m62 59h-12c-.6 0-1 .4-1 1s.4 1 1 1h12c.6 0 1-.4 1-1s-.4-1-1-1z"></path><path d="m29.3 11.9c.4.4 1 .4 1.4 0s.4-1 0-1.4c-.9-.9-2.3-1.1-3.4-.6l-.8-.8c-.4-.4-1-.4-1.4 0s-.4 1 0 1.4l.8.8c-.2.4-.3.8-.3 1.3 0 .8.3 1.5.9 2.1s1.3.9 2.1.9 1.5-.3 2.1-.9c.4-.4 1-.4 1.4 0 .2.2.3.4.3.7s-.1.5-.3.7c-.4.4-1 .4-1.4 0s-1-.4-1.4 0-.4 1 0 1.4c.6.6 1.3.9 2.1.9.4 0 .9-.1 1.3-.3l.8.8c.2.2.8.5 1.4 0 .4-.4.4-1 0-1.4l-.8-.8c.5-1.1.4-2.4-.6-3.4-1.2-1.2-3.1-1.2-4.2 0-.4.4-1 .4-1.4 0-.2-.2-.3-.4-.3-.7s.1-.5.3-.7c.4-.4 1-.4 1.4 0z"></path><path d="m38 47c1.7 0 3-1.3 3-3 0-.6-.4-1-1-1s-1 .4-1 1-.4 1-1 1-1-.4-1-1 .4-1 1-1 1-.4 1-1-.4-1-1-1c-1.7 0-3 1.3-3 3s1.3 3 3 3z"></path><path d="m20 31c.6 0 1-.4 1-1s.4-1 1-1 1 .4 1 1-.4 1-1 1-1 .4-1 1 .4 1 1 1c1.7 0 3-1.3 3-3s-1.3-3-3-3-3 1.3-3 3c0 .6.4 1 1 1z"></path><path d="m38.7 27.3c-.4-.4-1-.3-1.4.1l-16 18c-.4.4-.3 1 .1 1.4.5.5 1.2.1 1.4-.1l16-18c.3-.4.3-1.1-.1-1.4z"></path></svg>