<!-- icon666.com - MILLIONS vector ICONS FREE --><svg version="1.1" id="Layer_1" xmlns="http://www.w3.org/2000/svg" xmlns:xlink="http://www.w3.org/1999/xlink" x="0px" y="0px" viewBox="0 0 488 488" style="enable-background:new 0 0 488 488;" xml:space="preserve"><g transform="translate(0 -540.36)"><g><g><path d="M91.3,805.159c-50.4,0-91.3,41.3-91.3,92.1c0,24.8,9.5,48,26.8,65.3c17.2,17.3,40.1,26.8,64.5,26.8 c51.1,0,91.2-40.5,91.2-92.1c0-24.6-9.4-47.7-26.4-65C138.9,814.759,115.9,805.159,91.3,805.159z M91.3,969.359 c-39.3,0-71.3-32.3-71.3-72.1c0-39.8,32-72.1,71.3-72.1c39.2,0,71.2,32.3,71.3,72.1C162.6,937.659,131.3,969.359,91.3,969.359z"></path><path d="M470.2,884.859c-11.6-11.7-27-18.1-43.4-18.1c-33.9,0-60.4,27.1-60.4,61.7c0,34.1,26.5,60.9,60.4,60.9 c34.3,0,61.2-26.8,61.2-60.8C488,911.959,481.7,896.459,470.2,884.859z M426.8,969.359c-23,0-40.4-17.6-40.4-40.9 c0-23.4,17.8-41.7,40.4-41.7c23.1,0,41.2,18.3,41.2,41.7C468,951.359,449.9,969.359,426.8,969.359z"></path><path d="M452.7,856.361l17.4,17.6c3.9,3.9,10.2,4,14.1,0.1c3.9-4,4-10.3,0.1-14.2l0,0l-20.3-20.5c-1.9-1.9-4.4-3-7.1-3h-10.3 c0-0.2,0-0.4,0-0.7v-71.4c0-5.5-4.5-10-10-10h-40.4c0-0.2,0-0.4,0-0.7v-153.5c0-5.5-4.5-10-10-10h-30.1c-5.5,0-10,4.5-10,10 s4.5,10,10,10h20.1v143.5c0,0.2,0,0.4,0,0.7H271.8l-49.1-167.7c-1.2-4.3-5.2-7.2-9.6-7.2H61.2c-5.1,0-9.4,3.9-9.9,9l-20,192 l-27.7,28.7c-3.8,4-3.7,10.3,0.3,14.1s10.3,3.7,14.1-0.3l27.1-28.1h111.2l58.3,128c1.6,3.6,5.2,5.9,9.1,5.9H335 c3.6,0,6.9-1.9,8.7-5.1l37.8-67.2H452.7z M152.8,600.061v174.7H52l18.2-175.4h82.6C152.8,599.561,152.8,599.761,152.8,600.061z M172.8,782.561v-182.6c0-0.2,0-0.5,0-0.7h32.9l48.6,166.4v0v50.1h-66.4L172.8,782.561z M366.9,841.461l-37.8,67.2h-99 l-33.1-72.8h67.3c5.5,0,10-4.5,10-10v-51.6h152.3v21.1h-40.4c-5.5,0-10,4.5-10,10s4.5,10,10,10h40.4v20.4c0,0.2,0,0.5,0,0.7h-51 v-0.1C372,836.361,368.7,838.261,366.9,841.461z"></path></g></g></g></svg>